<?xml version="1.0" encoding="utf-8"?>
<!DOCTYPE svg PUBLIC "-//W3C//DTD SVG 20010904//EN" "http://www.w3.org/TR/2001/REC-SVG-20010904/DTD/svg10.dtd">
<svg version="1.0" width="23.25pt" height="24pt" viewBox="0 0 23.25 24" preserveAspectRatio="xMidYMid meet" xmlns="http://www.w3.org/2000/svg">
  <g transform="translate(0,24)scale(.075,.075)">
    <path id="path1" d="M 185 -301 c -11 5 -28 18 -39 29 -16 18 -17 26 -7 53 15 43 2 56 -39 39 -28 -12 -33 -11 -55 10 -31 29 -34 87 -6 121 14 17 28 23 55 22 36 -1 76 -25 76 -47 0 -6 -7 0 -16 12 -20 28 -33 28 -28 0 2 -13 2 -18 -1 -12 -4 7 -18 -1 -38 -20 -20 -19 -28 -34 -22 -39 5 -5 0 -5 -13 -2 -13 4 -22 2 -22 -4 0 -11 11 -14 40 -12 10 0 11 -1 2 -5 -13 -6 -7 -24 8 -24 14 0 71 52 81 74 9 19 9 19 5 -3 -8 -38 9 -51 45 -37 28 10 33 9 55 -17 18 -21 24 -40 24 -77 0 -27 -3 -51 -8 -54 -17 -10 -78 -15 -97 -7 z m 60 11 c 3 5 12 7 19 4 9 -3 13 5 14 26 0 18 -3 28 -10 24 -6 -4 -5 3 2 16 10 19 9 26 -13 47 -21 21 -28 23 -46 13 -19 -10 -20 -14 -10 -28 7 -9 -3 -2 -22 16 -46 42 -59 29 -17 -17 18 -19 25 -29 16 -22 -15 11 -19 10 -29 -13 -11 -23 -10 -29 10 -47 13 -12 30 -19 42 -16 10 3 17 1 13 -4 -3 -5 2 -9 10 -9 8 0 17 4 21 10 z m -163 200 c 30 30 33 55 7 55 -8 0 -13 -9 -12 -20 1 -20 1 -20 -13 -1 -12 18 -19 15 -15 -6 0 -5 -4 -8 -9 -8 -6 0 -10 -11 -10 -25 0 -33 15 -32 52 5 z M 230 -276 c 0 2 8 10 18 17 15 13 16 12 3 -3 -13 -17 -21 -22 -21 -14 z M 260 -275 c 0 3 2 5 5 5 3 0 5 -2 5 -5 0 -3 -2 -5 -5 -5 -3 0 -5 2 -5 5 z M 180 -266 c 0 2 7 7 16 10 8 3 12 2 9 -4 -6 -10 -25 -14 -25 -6 z M 235 -220 c 3 6 8 10 11 10 3 0 2 -4 -1 -10 -3 -6 -8 -10 -11 -10 -3 0 -2 4 1 10 z M 200 -215 c 0 3 2 5 5 5 3 0 5 -2 5 -5 0 -3 -2 -5 -5 -5 -3 0 -5 2 -5 5 z M 250 -195 c 0 3 2 5 5 5 3 0 5 -2 5 -5 0 -3 -2 -5 -5 -5 -3 0 -5 2 -5 5 z M 110 -125 c 13 14 26 25 28 25 3 0 -5 -11 -18 -25 -13 -14 -26 -25 -28 -25 -3 0 5 11 18 25 z M 95 -110 c 10 11 20 20 23 20 3 0 -3 -9 -13 -20 -10 -11 -20 -20 -23 -20 -3 0 3 9 13 20 z M 140 -80 c 0 7 3 10 7 7 3 -4 3 -10 0 -14 -4 -3 -7 0 -7 7 z " />
  </g>
</svg>